<svg xmlns="http://www.w3.org/2000/svg" viewBox="0 0 512 512" width="512" height="512">
	<style>
		tspan { white-space:pre }
		.shp0 { fill: #000000 } 
		.shp1 { fill: #ffffff } 
	</style>
	<path id="Layer" class="shp0" d="M297.28 508.67C295.14 509.02 293 509.34 290.86 509.63C293 509.34 295.14 509.02 297.28 508.67Z" />
	<path id="Layer" class="shp0" d="M302.4 507.79C301.38 507.98 300.36 508.15 299.34 508.33C300.36 508.15 301.38 507.98 302.4 507.79Z" />
	<path id="Layer" class="shp0" d="M285.14 510.34C282.64 510.62 280.13 510.87 277.61 511.08C280.13 510.87 282.64 510.62 285.14 510.34Z" />
	<path id="Layer" class="shp0" d="M290.05 509.74C288.86 509.9 287.65 510.05 286.45 510.19C287.65 510.05 288.86 509.9 290.05 509.74Z" />
	<path id="Layer" class="shp0" d="M309.37 506.41C308.47 506.6 307.57 506.79 306.66 506.98C307.57 506.79 308.47 506.6 309.37 506.41Z" />
	<path id="Layer" class="shp0" d="M326.66 502.11C325.94 502.32 325.21 502.52 324.48 502.72C325.21 502.52 325.94 502.32 326.66 502.11Z" />
	<path id="Layer" class="shp0" d="M321.43 503.54C320.64 503.75 319.85 503.96 319.06 504.16C319.85 503.96 320.64 503.75 321.43 503.54Z" />
	<path id="Layer" class="shp0" d="M314.59 505.25C313.75 505.45 312.91 505.63 312.07 505.82C312.91 505.63 313.75 505.45 314.59 505.25Z" />
	<path id="Layer" class="shp0" d="M277.53 511.09C276.18 511.2 274.83 511.3 273.48 511.39C274.83 511.3 276.18 511.2 277.53 511.09Z" />
	<path id="Layer" class="shp1" d="M512 256C512 114.64 397.36 0 256 0C114.64 0 0 114.64 0 256C0 397.36 114.64 512 256 512C257.5 512 259 511.97 260.5 511.94L260.5 312.66L205.5 312.66L205.5 248.56L260.5 248.56L260.5 201.39C260.5 146.69 293.89 116.91 342.69 116.91C366.06 116.91 386.14 118.66 392 119.43L392 176.61L358.35 176.61C331.8 176.61 326.66 189.22 326.66 207.73L326.66 248.56L390.14 248.56L381.87 312.66L326.66 312.66L326.66 502.11C433.67 471.43 512 372.85 512 256Z" />
	<path id="Layer" class="shp0" d="M272.91 511.43C270.25 511.6 267.57 511.74 264.89 511.83C267.57 511.74 270.25 511.6 272.91 511.43Z" />
	<path id="Layer" class="shp0" d="M264.75 511.84C263.34 511.88 261.92 511.92 260.5 511.94C261.92 511.92 263.34 511.88 264.75 511.84Z" />
</svg>