<svg xmlns="http://www.w3.org/2000/svg" viewBox="0 0 512 512" width="512" height="512">
	<style>
		tspan { white-space:pre }
		.shp0 { fill: #ffffff } 
	</style>
	<path id="Layer" class="shp0" d="M305 256C305 283.06 283.06 305 256 305C228.94 305 207 283.06 207 256C207 228.94 228.94 207 256 207C283.06 207 305 228.94 305 256Z" />
	<path id="Layer" fill-rule="evenodd" class="shp0" d="M370.59 169.3C372.61 174.48 375 182.27 375.66 196.6C376.36 212.1 376.51 216.75 376.51 256C376.51 295.25 376.36 299.9 375.66 315.41C375 329.74 372.61 337.52 370.59 342.7C365.65 355.52 355.52 365.65 342.7 370.6C337.52 372.61 329.73 375.01 315.4 375.66C299.9 376.37 295.25 376.52 256 376.52C216.74 376.52 212.1 376.37 196.6 375.66C182.27 375.01 174.48 372.61 169.3 370.6C162.91 368.24 157.14 364.48 152.4 359.6C147.52 354.86 143.76 349.09 141.4 342.7C139.39 337.52 137 329.74 136.34 315.41C135.64 299.9 135.48 295.25 135.48 256C135.48 216.75 135.64 212.1 136.34 196.6C137 182.27 139.39 174.48 141.4 169.3C143.76 162.92 147.52 157.14 152.4 152.4C157.14 147.52 162.92 143.76 169.3 141.41C174.48 139.39 182.27 137 196.6 136.34C212.1 135.64 216.75 135.49 256 135.49C295.25 135.49 299.9 135.64 315.4 136.35C329.73 137 337.52 139.39 342.7 141.41C349.08 143.76 354.86 147.52 359.6 152.4C364.48 157.14 368.24 162.92 370.59 169.3ZM331.48 256C331.48 214.31 297.69 180.52 256 180.52C214.31 180.52 180.51 214.31 180.51 256C180.51 297.69 214.31 331.48 256 331.48C297.69 331.48 331.48 297.69 331.48 256ZM352.11 177.53C352.11 167.79 344.21 159.89 334.47 159.89C324.73 159.89 316.83 167.79 316.83 177.53C316.83 187.27 324.73 195.17 334.47 195.17C344.21 195.17 352.11 187.27 352.11 177.53Z" />
	<path id="Layer" fill-rule="evenodd" class="shp0" d="M512 256C512 397.36 397.36 512 256 512C114.64 512 0 397.36 0 256C0 114.64 114.64 0 256 0C397.36 0 512 114.64 512 256ZM402.11 316.61C402.83 300.93 403 295.92 403 256C403 216.08 402.83 211.07 402.12 195.39C401.4 179.75 398.92 169.06 395.28 159.71C391.59 149.9 385.8 141.02 378.33 133.68C370.98 126.2 362.1 120.41 352.29 116.71C342.94 113.09 332.25 110.6 316.61 109.89C300.93 109.17 295.92 109 256 109C216.08 109 211.07 109.17 195.39 109.89C179.75 110.6 169.06 113.09 159.71 116.72C149.9 120.41 141.02 126.2 133.68 133.68C126.2 141.02 120.41 149.9 116.71 159.71C113.08 169.06 110.6 179.75 109.89 195.39C109.17 211.07 109 216.08 109 256C109 295.92 109.17 300.93 109.89 316.61C110.6 332.25 113.09 342.94 116.72 352.29C120.41 362.1 126.2 370.98 133.68 378.32C141.02 385.8 149.9 391.59 159.71 395.28C169.06 398.91 179.75 401.4 195.39 402.11C211.07 402.83 216.08 403 256 403C295.93 403 300.93 402.83 316.61 402.11C332.25 401.4 342.94 398.91 352.29 395.28C372.04 387.64 387.64 372.04 395.28 352.29C398.91 342.94 401.4 332.25 402.11 316.61Z" />
</svg>