<svg xmlns="http://www.w3.org/2000/svg" viewBox="0 0 512 512" width="512" height="512">
	<style>
		tspan { white-space:pre }
		.shp0 { fill: #ffffff } 
	</style>
	<path id="Layer" fill-rule="evenodd" class="shp0" d="M512 256C512 397.36 397.36 512 256 512C114.64 512 0 397.36 0 256C0 114.64 114.64 0 256 0C397.36 0 512 114.64 512 256ZM181.61 199.43L119.26 199.43L119.26 387L181.61 387L181.61 199.43ZM185.71 141.41C185.3 123 172.18 109 150.85 109C129.52 109 115.58 123 115.58 141.41C115.58 159.41 129.11 173.81 150.03 173.81L150.44 173.81C172.18 173.81 185.71 159.41 185.71 141.41ZM406.42 279.45C406.42 221.83 375.66 195.02 334.64 195.02C301.57 195.02 286.74 213.2 278.46 225.98L278.46 199.43L216.11 199.43C216.93 217.02 216.11 387 216.11 387L278.46 387L278.46 282.25C278.46 276.64 278.86 271.04 280.51 267.04C285.02 255.84 295.27 244.23 312.5 244.23C335.05 244.23 344.08 261.43 344.08 286.65L344.08 387L406.42 387L406.42 279.45Z" />
</svg>