<svg xmlns="http://www.w3.org/2000/svg" viewBox="0 0 512 512" width="512" height="512">
	<style>
		tspan { white-space:pre }
		.shp0 { fill: #ffffff } 
	</style>
	<path id="Layer" fill-rule="evenodd" class="shp0" d="M512 256C512 397.36 397.36 512 256 512C114.64 512 0 397.36 0 256C0 114.64 114.64 0 256 0C397.36 0 512 114.64 512 256ZM372.89 199.6C384.36 191.31 394.33 180.96 402.2 169.17C391.67 173.85 380.34 177 368.45 178.43C380.59 171.15 389.9 159.64 394.29 145.93C382.94 152.66 370.37 157.55 356.98 160.19C346.26 148.77 330.99 141.62 314.09 141.62C281.64 141.62 255.32 167.94 255.32 200.38C255.32 204.98 255.84 209.47 256.85 213.77C208.02 211.32 164.71 187.93 135.73 152.38C130.69 161.06 127.78 171.15 127.78 181.91C127.78 202.3 138.15 220.3 153.93 230.82C144.29 230.53 135.23 227.88 127.31 223.48C127.3 223.72 127.3 223.96 127.3 224.23C127.3 252.68 147.56 276.44 174.45 281.82C169.51 283.17 164.31 283.89 158.95 283.89C155.17 283.89 151.49 283.52 147.91 282.83C155.39 306.18 177.08 323.17 202.8 323.64C182.69 339.41 157.35 348.8 129.82 348.8C125.08 348.8 120.4 348.53 115.8 347.98C141.81 364.65 172.69 374.38 205.87 374.38C313.95 374.38 373.05 284.84 373.05 207.2C373.05 204.65 373 202.12 372.89 199.6Z" />
</svg>